<?xml version="1.0" encoding="UTF-8" standalone="no"?>
<!DOCTYPE svg PUBLIC "-//W3C//DTD SVG 1.1//EN"
 "http://www.w3.org/Graphics/SVG/1.1/DTD/svg11.dtd">
<!-- Generated by graphviz version 2.40.1 (20161225.0304)
 -->
<!-- Title: G Pages: 1 -->
<svg width="832pt" height="1588pt"
 viewBox="0.00 0.00 832.15 1588.00" xmlns="http://www.w3.org/2000/svg" xmlns:xlink="http://www.w3.org/1999/xlink">
<g id="graph0" class="graph" transform="scale(1 1) rotate(0) translate(4 1584)">
<title>G</title>
<polygon fill="#ffffff" stroke="transparent" points="-4,4 -4,-1584 828.1546,-1584 828.1546,4 -4,4"/>
<g id="clust1" class="cluster">
<title>cluster_Global</title>
<path fill="none" stroke="#c0c0c0" d="M152.0773,-98C152.0773,-98 804.1546,-98 804.1546,-98 810.1546,-98 816.1546,-104 816.1546,-110 816.1546,-110 816.1546,-1560 816.1546,-1560 816.1546,-1566 810.1546,-1572 804.1546,-1572 804.1546,-1572 152.0773,-1572 152.0773,-1572 146.0773,-1572 140.0773,-1566 140.0773,-1560 140.0773,-1560 140.0773,-110 140.0773,-110 140.0773,-104 146.0773,-98 152.0773,-98"/>
<text text-anchor="middle" x="478.1159" y="-1559.2" font-family="Times,serif" font-size="11.00" fill="#c0c0c0">Global</text>
</g>
<g id="clust2" class="cluster">
<title>cluster_\KenticoCloud</title>
<path fill="none" stroke="#c0c0c0" d="M160.0773,-106C160.0773,-106 796.1546,-106 796.1546,-106 802.1546,-106 808.1546,-112 808.1546,-118 808.1546,-118 808.1546,-1532 808.1546,-1532 808.1546,-1538 802.1546,-1544 796.1546,-1544 796.1546,-1544 160.0773,-1544 160.0773,-1544 154.0773,-1544 148.0773,-1538 148.0773,-1532 148.0773,-1532 148.0773,-118 148.0773,-118 148.0773,-112 154.0773,-106 160.0773,-106"/>
<text text-anchor="middle" x="478.1159" y="-1531.2" font-family="Times,serif" font-size="11.00" fill="#c0c0c0">KenticoCloud</text>
</g>
<g id="clust3" class="cluster">
<title>cluster_\KenticoCloud\Delivery</title>
<path fill="none" stroke="#c0c0c0" d="M168.0773,-114C168.0773,-114 788.1546,-114 788.1546,-114 794.1546,-114 800.1546,-120 800.1546,-126 800.1546,-126 800.1546,-1504 800.1546,-1504 800.1546,-1510 794.1546,-1516 788.1546,-1516 788.1546,-1516 168.0773,-1516 168.0773,-1516 162.0773,-1516 156.0773,-1510 156.0773,-1504 156.0773,-1504 156.0773,-126 156.0773,-126 156.0773,-120 162.0773,-114 168.0773,-114"/>
<text text-anchor="middle" x="478.1159" y="-1503.2" font-family="Times,serif" font-size="11.00" fill="#c0c0c0">Delivery</text>
</g>
<g id="clust4" class="cluster">
<title>cluster_\KenticoCloud\Delivery\Models</title>
<path fill="none" stroke="#c0c0c0" d="M176.0773,-572C176.0773,-572 780.1546,-572 780.1546,-572 786.1546,-572 792.1546,-578 792.1546,-584 792.1546,-584 792.1546,-1476 792.1546,-1476 792.1546,-1482 786.1546,-1488 780.1546,-1488 780.1546,-1488 176.0773,-1488 176.0773,-1488 170.0773,-1488 164.0773,-1482 164.0773,-1476 164.0773,-1476 164.0773,-584 164.0773,-584 164.0773,-578 170.0773,-572 176.0773,-572"/>
<text text-anchor="middle" x="478.1159" y="-1475.2" font-family="Times,serif" font-size="11.00" fill="#c0c0c0">Models</text>
</g>
<g id="clust5" class="cluster">
<title>cluster_\KenticoCloud\Delivery\Models\Taxonomies</title>
<path fill="none" stroke="#c0c0c0" d="M628.6546,-1038C628.6546,-1038 731.6546,-1038 731.6546,-1038 737.6546,-1038 743.6546,-1044 743.6546,-1050 743.6546,-1050 743.6546,-1206 743.6546,-1206 743.6546,-1212 737.6546,-1218 731.6546,-1218 731.6546,-1218 628.6546,-1218 628.6546,-1218 622.6546,-1218 616.6546,-1212 616.6546,-1206 616.6546,-1206 616.6546,-1050 616.6546,-1050 616.6546,-1044 622.6546,-1038 628.6546,-1038"/>
<text text-anchor="middle" x="680.1546" y="-1205.2" font-family="Times,serif" font-size="11.00" fill="#c0c0c0">Taxonomies</text>
</g>
<g id="clust6" class="cluster">
<title>cluster_\KenticoCloud\Delivery\Models\Types</title>
<path fill="none" stroke="#c0c0c0" d="M191.0773,-1226C191.0773,-1226 772.1546,-1226 772.1546,-1226 778.1546,-1226 784.1546,-1232 784.1546,-1238 784.1546,-1238 784.1546,-1448 784.1546,-1448 784.1546,-1454 778.1546,-1460 772.1546,-1460 772.1546,-1460 191.0773,-1460 191.0773,-1460 185.0773,-1460 179.0773,-1454 179.0773,-1448 179.0773,-1448 179.0773,-1238 179.0773,-1238 179.0773,-1232 185.0773,-1226 191.0773,-1226"/>
<text text-anchor="middle" x="481.6159" y="-1447.2" font-family="Times,serif" font-size="11.00" fill="#c0c0c0">Types</text>
</g>
<g id="clust7" class="cluster">
<title>cluster_\KenticoCloud\Delivery\Models\Items</title>
<path fill="none" stroke="#c0c0c0" d="M615.1546,-580C615.1546,-580 745.1546,-580 745.1546,-580 751.1546,-580 757.1546,-586 757.1546,-592 757.1546,-592 757.1546,-1018 757.1546,-1018 757.1546,-1024 751.1546,-1030 745.1546,-1030 745.1546,-1030 615.1546,-1030 615.1546,-1030 609.1546,-1030 603.1546,-1024 603.1546,-1018 603.1546,-1018 603.1546,-592 603.1546,-592 603.1546,-586 609.1546,-580 615.1546,-580"/>
<text text-anchor="middle" x="680.1546" y="-1017.2" font-family="Times,serif" font-size="11.00" fill="#c0c0c0">Items</text>
</g>
<g id="clust8" class="cluster">
<title>cluster_\KenticoCloud\Delivery\Models\Shared</title>
<path fill="none" stroke="#c0c0c0" d="M184.0773,-1038C184.0773,-1038 328.0773,-1038 328.0773,-1038 334.0773,-1038 340.0773,-1044 340.0773,-1050 340.0773,-1050 340.0773,-1206 340.0773,-1206 340.0773,-1212 334.0773,-1218 328.0773,-1218 328.0773,-1218 184.0773,-1218 184.0773,-1218 178.0773,-1218 172.0773,-1212 172.0773,-1206 172.0773,-1206 172.0773,-1050 172.0773,-1050 172.0773,-1044 178.0773,-1038 184.0773,-1038"/>
<text text-anchor="middle" x="256.0773" y="-1205.2" font-family="Times,serif" font-size="11.00" fill="#c0c0c0">Shared</text>
</g>
<g id="clust9" class="cluster">
<title>cluster_\KenticoCloud\Delivery\Helpers</title>
<path fill="none" stroke="#c0c0c0" d="M218.0773,-492C218.0773,-492 718.1546,-492 718.1546,-492 724.1546,-492 730.1546,-498 730.1546,-504 730.1546,-504 730.1546,-552 730.1546,-552 730.1546,-558 724.1546,-564 718.1546,-564 718.1546,-564 218.0773,-564 218.0773,-564 212.0773,-564 206.0773,-558 206.0773,-552 206.0773,-552 206.0773,-504 206.0773,-504 206.0773,-498 212.0773,-492 218.0773,-492"/>
<text text-anchor="middle" x="468.1159" y="-551.2" font-family="Times,serif" font-size="11.00" fill="#c0c0c0">Helpers</text>
</g>
<!-- \\KenticoCloud\\Delivery\\Models\\Taxonomies\\TaxonomySystem -->
<g id="node1" class="node">
<title>\\KenticoCloud\\Delivery\\Models\\Taxonomies\\TaxonomySystem</title>
<polygon fill="none" stroke="#000000" points="735.6546,-1190 624.6546,-1190 624.6546,-1154 735.6546,-1154 735.6546,-1190"/>
<text text-anchor="middle" x="680.1546" y="-1169.2" font-family="Courier,monospace" font-size="11.00" fill="#000000">TaxonomySystem</text>
</g>
<!-- \\KenticoCloud\\Delivery\\Models\\Shared\\SystemBase -->
<g id="node19" class="node">
<title>\\KenticoCloud\\Delivery\\Models\\Shared\\SystemBase</title>
<polygon fill="none" stroke="#000000" points="298.0773,-1082 214.0773,-1082 214.0773,-1046 298.0773,-1046 298.0773,-1082"/>
<text text-anchor="middle" x="256.0773" y="-1061.2" font-family="Courier,monospace" font-size="11.00" fill="#000000">SystemBase</text>
</g>
<!-- \\KenticoCloud\\Delivery\\Models\\Taxonomies\\TaxonomySystem&#45;&gt;\\KenticoCloud\\Delivery\\Models\\Shared\\SystemBase -->
<g id="edge1" class="edge">
<title>\\KenticoCloud\\Delivery\\Models\\Taxonomies\\TaxonomySystem&#45;&gt;\\KenticoCloud\\Delivery\\Models\\Shared\\SystemBase</title>
<path fill="none" stroke="#000000" d="M624.5317,-1160.1061C610.9554,-1156.1949 596.7278,-1151.2112 584.1546,-1145 548.2918,-1127.2839 549.3855,-1105.6239 512.1546,-1091 445.4492,-1064.7989 361.8671,-1060.825 308.704,-1061.5149"/>
<polygon fill="none" stroke="#000000" points="308.4224,-1058.0195 298.491,-1061.7098 308.556,-1065.0183 308.4224,-1058.0195"/>
</g>
<!-- \\KenticoCloud\\Delivery\\Models\\Taxonomies\\Term -->
<g id="node2" class="node">
<title>\\KenticoCloud\\Delivery\\Models\\Taxonomies\\Term</title>
<polygon fill="none" stroke="#000000" points="707.1546,-1136 653.1546,-1136 653.1546,-1100 707.1546,-1100 707.1546,-1136"/>
<text text-anchor="middle" x="680.1546" y="-1115.2" font-family="Courier,monospace" font-size="11.00" fill="#000000">Term</text>
</g>
<!-- \\KenticoCloud\\Delivery\\Models\\Taxonomies\\Taxonomy -->
<g id="node3" class="node">
<title>\\KenticoCloud\\Delivery\\Models\\Taxonomies\\Taxonomy</title>
<polygon fill="none" stroke="#000000" points="715.6546,-1082 644.6546,-1082 644.6546,-1046 715.6546,-1046 715.6546,-1082"/>
<text text-anchor="middle" x="680.1546" y="-1061.2" font-family="Courier,monospace" font-size="11.00" fill="#000000">Taxonomy</text>
</g>
<!-- \\KenticoCloud\\Delivery\\Models\\Types\\ContentTypeElement -->
<g id="node4" class="node">
<title>\\KenticoCloud\\Delivery\\Models\\Types\\ContentTypeElement</title>
<polygon fill="none" stroke="#000000" points="325.0773,-1378 187.0773,-1378 187.0773,-1342 325.0773,-1342 325.0773,-1378"/>
<text text-anchor="middle" x="256.0773" y="-1357.2" font-family="Courier,monospace" font-size="11.00" fill="#000000">ContentTypeElement</text>
</g>
<!-- \\KenticoCloud\\Delivery\\Models\\Types\\ContentTypeSystem -->
<g id="node5" class="node">
<title>\\KenticoCloud\\Delivery\\Models\\Types\\ContentTypeSystem</title>
<polygon fill="none" stroke="#000000" points="745.6546,-1270 614.6546,-1270 614.6546,-1234 745.6546,-1234 745.6546,-1270"/>
<text text-anchor="middle" x="680.1546" y="-1249.2" font-family="Courier,monospace" font-size="11.00" fill="#000000">ContentTypeSystem</text>
</g>
<!-- \\KenticoCloud\\Delivery\\Models\\Types\\ContentTypeSystem&#45;&gt;\\KenticoCloud\\Delivery\\Models\\Shared\\SystemBase -->
<g id="edge3" class="edge">
<title>\\KenticoCloud\\Delivery\\Models\\Types\\ContentTypeSystem&#45;&gt;\\KenticoCloud\\Delivery\\Models\\Shared\\SystemBase</title>
<path fill="none" stroke="#000000" d="M614.2503,-1238.8201C603.4533,-1234.6566 592.9401,-1229.1858 584.1546,-1222 532.7285,-1179.9382 567.4831,-1127.7775 512.1546,-1091 451.2969,-1050.5473 363.7492,-1050.7469 308.4098,-1056.1766"/>
<polygon fill="none" stroke="#000000" points="307.6957,-1052.7331 298.1272,-1057.2821 308.4441,-1059.693 307.6957,-1052.7331"/>
</g>
<!-- \\KenticoCloud\\Delivery\\Models\\Types\\ContentType -->
<g id="node6" class="node">
<title>\\KenticoCloud\\Delivery\\Models\\Types\\ContentType</title>
<polygon fill="none" stroke="#000000" points="725.6546,-1378 634.6546,-1378 634.6546,-1342 725.6546,-1342 725.6546,-1378"/>
<text text-anchor="middle" x="680.1546" y="-1357.2" font-family="Courier,monospace" font-size="11.00" fill="#000000">ContentType</text>
</g>
<!-- \\KenticoCloud\\Delivery\\Models\\Types\\TaxonomyTypeElement -->
<g id="node7" class="node">
<title>\\KenticoCloud\\Delivery\\Models\\Types\\TaxonomyTypeElement</title>
<polygon fill="none" stroke="#000000" points="752.6546,-1432 607.6546,-1432 607.6546,-1396 752.6546,-1396 752.6546,-1432"/>
<text text-anchor="middle" x="680.1546" y="-1411.2" font-family="Courier,monospace" font-size="11.00" fill="#000000">TaxonomyTypeElement</text>
</g>
<!-- \\KenticoCloud\\Delivery\\Models\\Types\\TaxonomyTypeElement&#45;&gt;\\KenticoCloud\\Delivery\\Models\\Types\\ContentTypeElement -->
<g id="edge7" class="edge">
<title>\\KenticoCloud\\Delivery\\Models\\Types\\TaxonomyTypeElement&#45;&gt;\\KenticoCloud\\Delivery\\Models\\Types\\ContentTypeElement</title>
<path fill="none" stroke="#000000" d="M607.2531,-1404.7171C531.5551,-1395.078 413.4988,-1380.0453 335.4786,-1370.1106"/>
<polygon fill="none" stroke="#000000" points="335.5813,-1366.5955 325.2193,-1368.8042 334.6971,-1373.5394 335.5813,-1366.5955"/>
</g>
<!-- \\KenticoCloud\\Delivery\\Models\\Types\\MultipleOptionsTypeElement -->
<g id="node8" class="node">
<title>\\KenticoCloud\\Delivery\\Models\\Types\\MultipleOptionsTypeElement</title>
<polygon fill="none" stroke="#000000" points="776.1546,-1324 584.1546,-1324 584.1546,-1288 776.1546,-1288 776.1546,-1324"/>
<text text-anchor="middle" x="680.1546" y="-1303.2" font-family="Courier,monospace" font-size="11.00" fill="#000000">MultipleOptionsTypeElement</text>
</g>
<!-- \\KenticoCloud\\Delivery\\Models\\Types\\MultipleOptionsTypeElement&#45;&gt;\\KenticoCloud\\Delivery\\Models\\Types\\ContentTypeElement -->
<g id="edge12" class="edge">
<title>\\KenticoCloud\\Delivery\\Models\\Types\\MultipleOptionsTypeElement&#45;&gt;\\KenticoCloud\\Delivery\\Models\\Types\\ContentTypeElement</title>
<path fill="none" stroke="#000000" d="M583.9249,-1318.2534C508.8078,-1327.8185 405.7192,-1340.9453 335.3193,-1349.9097"/>
<polygon fill="none" stroke="#000000" points="334.6546,-1346.466 325.1768,-1351.2012 335.5388,-1353.4099 334.6546,-1346.466"/>
</g>
<!-- \\KenticoCloud\\Delivery\\Models\\Items\\ContentItems -->
<g id="node9" class="node">
<title>\\KenticoCloud\\Delivery\\Models\\Items\\ContentItems</title>
<polygon fill="none" stroke="#000000" points="729.1546,-1002 631.1546,-1002 631.1546,-966 729.1546,-966 729.1546,-1002"/>
<text text-anchor="middle" x="680.1546" y="-981.2" font-family="Courier,monospace" font-size="11.00" fill="#000000">ContentItems</text>
</g>
<!-- \\KenticoCloud\\Delivery\\Models\\Items\\ContentItemElement -->
<g id="node10" class="node">
<title>\\KenticoCloud\\Delivery\\Models\\Items\\ContentItemElement</title>
<polygon fill="none" stroke="#000000" points="749.1546,-948 611.1546,-948 611.1546,-912 749.1546,-912 749.1546,-948"/>
<text text-anchor="middle" x="680.1546" y="-927.2" font-family="Courier,monospace" font-size="11.00" fill="#000000">ContentItemElement</text>
</g>
<!-- \\KenticoCloud\\Delivery\\Models\\Items\\ContentItemSystem -->
<g id="node11" class="node">
<title>\\KenticoCloud\\Delivery\\Models\\Items\\ContentItemSystem</title>
<polygon fill="none" stroke="#000000" points="745.6546,-894 614.6546,-894 614.6546,-858 745.6546,-858 745.6546,-894"/>
<text text-anchor="middle" x="680.1546" y="-873.2" font-family="Courier,monospace" font-size="11.00" fill="#000000">ContentItemSystem</text>
</g>
<!-- \\KenticoCloud\\Delivery\\Models\\Items\\ContentItemSystem&#45;&gt;\\KenticoCloud\\Delivery\\Models\\Shared\\SystemBase -->
<g id="edge2" class="edge">
<title>\\KenticoCloud\\Delivery\\Models\\Items\\ContentItemSystem&#45;&gt;\\KenticoCloud\\Delivery\\Models\\Shared\\SystemBase</title>
<path fill="none" stroke="#000000" d="M614.566,-892.7219C604.2856,-895.8362 593.8575,-899.2902 584.1546,-903 477.0533,-943.9489 357.6665,-1007.3186 296.7153,-1041.0458"/>
<polygon fill="none" stroke="#000000" points="294.842,-1038.0826 287.8001,-1045.9986 298.2414,-1044.2018 294.842,-1038.0826"/>
</g>
<!-- \\KenticoCloud\\Delivery\\Models\\Items\\TaxonomyTerm -->
<g id="node12" class="node">
<title>\\KenticoCloud\\Delivery\\Models\\Items\\TaxonomyTerm</title>
<polygon fill="none" stroke="#000000" points="729.1546,-840 631.1546,-840 631.1546,-804 729.1546,-804 729.1546,-840"/>
<text text-anchor="middle" x="680.1546" y="-819.2" font-family="Courier,monospace" font-size="11.00" fill="#000000">TaxonomyTerm</text>
</g>
<!-- \\KenticoCloud\\Delivery\\Models\\ContentItemElement -->
<g id="node31" class="node">
<title>\\KenticoCloud\\Delivery\\Models\\ContentItemElement</title>
<ellipse fill="none" stroke="#000000" cx="256.0773" cy="-72" rx="256.1546" ry="18"/>
<text text-anchor="middle" x="256.0773" y="-68.3" font-family="Times,serif" font-size="14.00" fill="#c0c0c0">\KenticoCloud\Delivery\Models\ContentItemElement</text>
</g>
<!-- \\KenticoCloud\\Delivery\\Models\\Items\\TaxonomyTerm&#45;&gt;\\KenticoCloud\\Delivery\\Models\\ContentItemElement -->
<g id="edge6" class="edge">
<title>\\KenticoCloud\\Delivery\\Models\\Items\\TaxonomyTerm&#45;&gt;\\KenticoCloud\\Delivery\\Models\\ContentItemElement</title>
<path fill="none" stroke="#000000" d="M631.0906,-819.3044C613.784,-815.8005 595.7636,-808.7638 584.1546,-795 485.4709,-677.9994 618.0556,-220.5105 512.1546,-110 503.1371,-100.5901 492.8768,-92.8243 481.771,-86.4511"/>
<polygon fill="none" stroke="#000000" points="483.1648,-83.2285 472.6906,-81.6336 479.8841,-89.4121 483.1648,-83.2285"/>
</g>
<!-- \\KenticoCloud\\Delivery\\Models\\Items\\ContentItem -->
<g id="node13" class="node">
<title>\\KenticoCloud\\Delivery\\Models\\Items\\ContentItem</title>
<polygon fill="none" stroke="#000000" points="725.6546,-786 634.6546,-786 634.6546,-750 725.6546,-750 725.6546,-786"/>
<text text-anchor="middle" x="680.1546" y="-765.2" font-family="Courier,monospace" font-size="11.00" fill="#000000">ContentItem</text>
</g>
<!-- \\KenticoCloud\\Delivery\\Models\\Items\\Assets -->
<g id="node14" class="node">
<title>\\KenticoCloud\\Delivery\\Models\\Items\\Assets</title>
<polygon fill="none" stroke="#000000" points="708.6546,-732 651.6546,-732 651.6546,-696 708.6546,-696 708.6546,-732"/>
<text text-anchor="middle" x="680.1546" y="-711.2" font-family="Courier,monospace" font-size="11.00" fill="#000000">Assets</text>
</g>
<!-- \\KenticoCloud\\Delivery\\Models\\Items\\Assets&#45;&gt;\\KenticoCloud\\Delivery\\Models\\ContentItemElement -->
<g id="edge8" class="edge">
<title>\\KenticoCloud\\Delivery\\Models\\Items\\Assets&#45;&gt;\\KenticoCloud\\Delivery\\Models\\ContentItemElement</title>
<path fill="none" stroke="#000000" d="M651.3432,-713.9432C629.5452,-712.2502 600.6386,-706.1631 584.1546,-687 415.6235,-491.079 692.7647,-294.8452 512.1546,-110 502.9842,-100.6146 492.575,-92.8757 481.3287,-86.5298"/>
<polygon fill="none" stroke="#000000" points="482.6224,-83.2571 472.1376,-81.7343 479.3843,-89.4632 482.6224,-83.2571"/>
</g>
<!-- \\KenticoCloud\\Delivery\\Models\\Items\\Text -->
<g id="node15" class="node">
<title>\\KenticoCloud\\Delivery\\Models\\Items\\Text</title>
<polygon fill="none" stroke="#000000" points="707.1546,-678 653.1546,-678 653.1546,-642 707.1546,-642 707.1546,-678"/>
<text text-anchor="middle" x="680.1546" y="-657.2" font-family="Courier,monospace" font-size="11.00" fill="#000000">Text</text>
</g>
<!-- \\KenticoCloud\\Delivery\\Models\\Items\\Text&#45;&gt;\\KenticoCloud\\Delivery\\Models\\ContentItemElement -->
<g id="edge10" class="edge">
<title>\\KenticoCloud\\Delivery\\Models\\Items\\Text&#45;&gt;\\KenticoCloud\\Delivery\\Models\\ContentItemElement</title>
<path fill="none" stroke="#000000" d="M652.7425,-659.986C630.8416,-658.4054 601.1008,-652.4499 584.1546,-633 430.0184,-456.0919 677.1936,-276.7829 512.1546,-110 502.7706,-100.5169 492.1199,-92.7221 480.6224,-86.3515"/>
<polygon fill="none" stroke="#000000" points="482.1664,-83.2098 471.6721,-81.7531 478.9674,-89.4361 482.1664,-83.2098"/>
</g>
<!-- \\KenticoCloud\\Delivery\\Models\\Items\\Asset -->
<g id="node16" class="node">
<title>\\KenticoCloud\\Delivery\\Models\\Items\\Asset</title>
<polygon fill="none" stroke="#000000" points="707.1546,-624 653.1546,-624 653.1546,-588 707.1546,-588 707.1546,-624"/>
<text text-anchor="middle" x="680.1546" y="-603.2" font-family="Courier,monospace" font-size="11.00" fill="#000000">Asset</text>
</g>
<!-- \\KenticoCloud\\Delivery\\Models\\Items\\Asset&#45;&gt;\\KenticoCloud\\Delivery\\Models\\ContentItemElement -->
<g id="edge13" class="edge">
<title>\\KenticoCloud\\Delivery\\Models\\Items\\Asset&#45;&gt;\\KenticoCloud\\Delivery\\Models\\ContentItemElement</title>
<path fill="none" stroke="#000000" d="M653.0486,-602.6476C631.0259,-598.4308 600.9544,-588.9927 584.1546,-568 455.4058,-407.1192 658.4838,-255.0745 512.1546,-110 502.6168,-100.544 491.8164,-92.7778 480.1782,-86.4358"/>
<polygon fill="none" stroke="#000000" points="481.6258,-83.2459 471.1221,-81.8592 478.4686,-89.4934 481.6258,-83.2459"/>
</g>
<!-- \\KenticoCloud\\Delivery\\Models\\Shared\\MultipleChoiceOption -->
<g id="node17" class="node">
<title>\\KenticoCloud\\Delivery\\Models\\Shared\\MultipleChoiceOption</title>
<polygon fill="none" stroke="#000000" points="332.0773,-1190 180.0773,-1190 180.0773,-1154 332.0773,-1154 332.0773,-1190"/>
<text text-anchor="middle" x="256.0773" y="-1169.2" font-family="Courier,monospace" font-size="11.00" fill="#000000">MultipleChoiceOption</text>
</g>
<!-- \\KenticoCloud\\Delivery\\Models\\Shared\\Pagination -->
<g id="node18" class="node">
<title>\\KenticoCloud\\Delivery\\Models\\Shared\\Pagination</title>
<polygon fill="none" stroke="#000000" points="298.0773,-1136 214.0773,-1136 214.0773,-1100 298.0773,-1100 298.0773,-1136"/>
<text text-anchor="middle" x="256.0773" y="-1115.2" font-family="Courier,monospace" font-size="11.00" fill="#000000">Pagination</text>
</g>
<!-- \\KenticoCloud\\Delivery\\Helpers\\TextHelper -->
<g id="node20" class="node">
<title>\\KenticoCloud\\Delivery\\Helpers\\TextHelper</title>
<polygon fill="none" stroke="#000000" points="722.1546,-536 638.1546,-536 638.1546,-500 722.1546,-500 722.1546,-536"/>
<text text-anchor="middle" x="680.1546" y="-515.2" font-family="Courier,monospace" font-size="11.00" fill="#000000">TextHelper</text>
</g>
<!-- \\KenticoCloud\\Delivery\\Helpers\\Singleton -->
<g id="node21" class="node">
<title>\\KenticoCloud\\Delivery\\Helpers\\Singleton</title>
<polygon fill="none" stroke="#000000" points="298.0773,-536 214.0773,-536 214.0773,-500 298.0773,-500 298.0773,-536"/>
<text text-anchor="start" x="222.0773" y="-521.2" font-family="Courier,monospace" font-size="11.00" fill="#000000">«abstract»</text>
<text text-anchor="start" x="225.5773" y="-509.2" font-family="Courier,monospace" font-size="11.00" fill="#000000">Singleton</text>
</g>
<!-- \\KenticoCloud\\Delivery\\Helpers\\TextHelper&#45;&gt;\\KenticoCloud\\Delivery\\Helpers\\Singleton -->
<g id="edge9" class="edge">
<title>\\KenticoCloud\\Delivery\\Helpers\\TextHelper&#45;&gt;\\KenticoCloud\\Delivery\\Helpers\\Singleton</title>
<path fill="none" stroke="#000000" d="M637.942,-518C559.9096,-518 393.3219,-518 308.3174,-518"/>
<polygon fill="none" stroke="#000000" points="308.1191,-514.5001 298.1191,-518 308.1191,-521.5001 308.1191,-514.5001"/>
</g>
<!-- \\KenticoCloud\\Delivery\\UrlBuilder -->
<g id="node22" class="node">
<title>\\KenticoCloud\\Delivery\\UrlBuilder</title>
<polygon fill="none" stroke="#000000" points="722.1546,-482 638.1546,-482 638.1546,-446 722.1546,-446 722.1546,-482"/>
<text text-anchor="middle" x="680.1546" y="-461.2" font-family="Courier,monospace" font-size="11.00" fill="#000000">UrlBuilder</text>
</g>
<!-- \\KenticoCloud\\Delivery\\ContentElementTypesMap -->
<g id="node23" class="node">
<title>\\KenticoCloud\\Delivery\\ContentElementTypesMap</title>
<polygon fill="none" stroke="#000000" points="762.6546,-428 597.6546,-428 597.6546,-392 762.6546,-392 762.6546,-428"/>
<text text-anchor="middle" x="680.1546" y="-407.2" font-family="Courier,monospace" font-size="11.00" fill="#000000">ContentElementTypesMap</text>
</g>
<!-- \\KenticoCloud\\Delivery\\DefaultMapper -->
<g id="node24" class="node">
<title>\\KenticoCloud\\Delivery\\DefaultMapper</title>
<polygon fill="none" stroke="#000000" points="732.1546,-374 628.1546,-374 628.1546,-338 732.1546,-338 732.1546,-374"/>
<text text-anchor="middle" x="680.1546" y="-353.2" font-family="Courier,monospace" font-size="11.00" fill="#000000">DefaultMapper</text>
</g>
<!-- \\KenticoCloud\\Delivery\\TypeMapperInterface -->
<g id="node29" class="node">
<title>\\KenticoCloud\\Delivery\\TypeMapperInterface</title>
<polygon fill="none" stroke="#000000" points="328.5773,-347 183.5773,-347 183.5773,-311 328.5773,-311 328.5773,-347"/>
<text text-anchor="middle" x="256.0773" y="-326.2" font-family="Courier,monospace" font-size="11.00" fill="#000000">TypeMapperInterface</text>
</g>
<!-- \\KenticoCloud\\Delivery\\DefaultMapper&#45;&gt;\\KenticoCloud\\Delivery\\TypeMapperInterface -->
<g id="edge4" class="edge">
<title>\\KenticoCloud\\Delivery\\DefaultMapper&#45;&gt;\\KenticoCloud\\Delivery\\TypeMapperInterface</title>
<path fill="none" stroke="#000000" stroke-dasharray="1,5" d="M628.1544,-352.6893C555.9991,-348.0953 424.7316,-339.7378 338.9779,-334.2781"/>
<polygon fill="none" stroke="#000000" points="338.955,-330.7696 328.7527,-333.6271 338.5101,-337.7555 338.955,-330.7696"/>
</g>
<!-- \\KenticoCloud\\Delivery\\PropertyMapperInterface -->
<g id="node30" class="node">
<title>\\KenticoCloud\\Delivery\\PropertyMapperInterface</title>
<polygon fill="none" stroke="#000000" points="342.0773,-401 170.0773,-401 170.0773,-365 342.0773,-365 342.0773,-401"/>
<text text-anchor="middle" x="256.0773" y="-380.2" font-family="Courier,monospace" font-size="11.00" fill="#000000">PropertyMapperInterface</text>
</g>
<!-- \\KenticoCloud\\Delivery\\DefaultMapper&#45;&gt;\\KenticoCloud\\Delivery\\PropertyMapperInterface -->
<g id="edge5" class="edge">
<title>\\KenticoCloud\\Delivery\\DefaultMapper&#45;&gt;\\KenticoCloud\\Delivery\\PropertyMapperInterface</title>
<path fill="none" stroke="#000000" stroke-dasharray="1,5" d="M628.1544,-359.3107C559.6489,-363.6723 437.86,-371.4263 352.3266,-376.872"/>
<polygon fill="none" stroke="#000000" points="352.1002,-373.3793 342.3428,-377.5077 352.5451,-380.3651 352.1002,-373.3793"/>
</g>
<!-- \\KenticoCloud\\Delivery\\ModelBinder -->
<g id="node25" class="node">
<title>\\KenticoCloud\\Delivery\\ModelBinder</title>
<polygon fill="none" stroke="#000000" points="725.6546,-320 634.6546,-320 634.6546,-284 725.6546,-284 725.6546,-320"/>
<text text-anchor="middle" x="680.1546" y="-299.2" font-family="Courier,monospace" font-size="11.00" fill="#000000">ModelBinder</text>
</g>
<!-- \\KenticoCloud\\Delivery\\QueryParams -->
<g id="node26" class="node">
<title>\\KenticoCloud\\Delivery\\QueryParams</title>
<polygon fill="none" stroke="#000000" points="725.6546,-266 634.6546,-266 634.6546,-230 725.6546,-230 725.6546,-266"/>
<text text-anchor="middle" x="680.1546" y="-245.2" font-family="Courier,monospace" font-size="11.00" fill="#000000">QueryParams</text>
</g>
<!-- \\ArrayAccess -->
<g id="node32" class="node">
<title>\\ArrayAccess</title>
<ellipse fill="none" stroke="#000000" cx="256.0773" cy="-18" rx="72.5877" ry="18"/>
<text text-anchor="middle" x="256.0773" y="-14.3" font-family="Times,serif" font-size="14.00" fill="#c0c0c0">\ArrayAccess</text>
</g>
<!-- \\KenticoCloud\\Delivery\\QueryParams&#45;&gt;\\ArrayAccess -->
<g id="edge11" class="edge">
<title>\\KenticoCloud\\Delivery\\QueryParams&#45;&gt;\\ArrayAccess</title>
<path fill="none" stroke="#000000" stroke-dasharray="1,5" d="M634.4984,-243.739C617.019,-240.0706 597.9798,-233.3307 584.1546,-221 521.082,-164.7455 579.7529,-95.7265 512.1546,-45 459.4746,-5.4685 382.6149,-2.4957 326.8548,-7.0952"/>
<polygon fill="none" stroke="#000000" points="326.3342,-3.6283 316.6993,-8.0351 326.9793,-10.5986 326.3342,-3.6283"/>
</g>
<!-- \\KenticoCloud\\Delivery\\TaxonomyFactory -->
<g id="node27" class="node">
<title>\\KenticoCloud\\Delivery\\TaxonomyFactory</title>
<polygon fill="none" stroke="#000000" points="739.1546,-212 621.1546,-212 621.1546,-176 739.1546,-176 739.1546,-212"/>
<text text-anchor="middle" x="680.1546" y="-191.2" font-family="Courier,monospace" font-size="11.00" fill="#000000">TaxonomyFactory</text>
</g>
<!-- \\KenticoCloud\\Delivery\\ContentTypeFactory -->
<g id="node28" class="node">
<title>\\KenticoCloud\\Delivery\\ContentTypeFactory</title>
<polygon fill="none" stroke="#000000" points="749.1546,-158 611.1546,-158 611.1546,-122 749.1546,-122 749.1546,-158"/>
<text text-anchor="middle" x="680.1546" y="-137.2" font-family="Courier,monospace" font-size="11.00" fill="#000000">ContentTypeFactory</text>
</g>
</g>
</svg>
